#!OML:ASF H:\Dans Jumps\Project 1\Capture day 1\Session 1\subject.ASF
:FULLY-SPECIFIED
:DEGREES
518
root -0.0329973 17.7477 1.83183 7.55274 0.27021 -1.76659
lowerback -1.40827 -0.461906 0.0918587
upperback 0.933476 -0.648564 1.86302
thorax 1.76671 -0.334885 1.83991
lowerneck -13.3661 -0.397358 -2.11291
upperneck 24.1821 -0.359803 1.19703
head 9.88183 -0.223689 0.731968
rclavicle 4.17448e-015 -1.78906e-014
rhumerus -28.1554 -17.5714 -78.5708
rradius 23.1037
rwrist 33.8949
rhand -22.2431 -26.0834
rfingers 7.12502
rthumb 4.17404 -56.0222
lclavicle 4.17448e-015 -1.78906e-014
lhumerus -27.2245 -7.92834 93.2862
lradius 24.0049
lwrist 14.6022
lhand -27.5572 -6.14803
lfingers 7.12502
lthumb -0.958229 23.8296
rfemur -15.0958 -1.28728 18.8787
rtibia 20.6772
rfoot -11.5818 -2.46877
rtoes 12.3559
lfemur -14.7051 5.78213 -15.9301
ltibia 18.3483
lfoot -7.53022 6.07541
ltoes -2.53468
519
root -0.0313442 17.7472 1.85367 7.47654 0.329279 -1.77964
lowerback -1.49855 -0.473874 0.125856
upperback 0.904878 -0.665855 1.86148
thorax 1.78821 -0.343048 1.8181
lowerneck -13.3449 -0.403915 -2.13951
upperneck 24.1028 -0.362036 1.1952
head 9.84957 -0.227045 0.735173
rclavicle -1.3418e-015 7.95139e-015
rhumerus -28.0745 -17.5042 -78.6362
rradius 23.0948
rwrist 33.8933
rhand -22.2243 -26.065
rfingers 7.12502
rthumb 4.19219 -56.0035
lclavicle -1.3418e-015 7.95139e-015
lhumerus -27.2041 -7.94799 93.3571
lradius 23.9267
lwrist 14.4721
lhand -27.5169 -6.07713
lfingers 7.12502
lthumb -0.919279 23.9006
rfemur -14.8811 -1.32508 18.8891
rtibia 20.6008
rfoot -11.6304 -2.50036
rtoes 12.308
lfemur -14.5352 5.75587 -15.9063
ltibia 18.3241
lfoot -7.5939 6.06625
ltoes -2.54358
520
root -0.0298182 17.7466 1.87494 7.40231 0.385022 -1.78953
lowerback -1.58523 -0.485395 0.151184
upperback 0.877618 -0.68242 1.86205
thorax 1.80914 -0.350972 1.80335
lowerneck -13.3257 -0.408175 -2.16438
upperneck 24.0223 -0.360437 1.18947
head 9.81723 -0.228889 0.737193
rclavicle -7.20594e-015 7.15625e-015
rhumerus -28.0016 -17.4296 -78.7002
rradius 23.0912
rwrist 33.8698
rhand -22.2048 -26.0502
rfingers 7.12502
rthumb 4.21102 -55.9883
lclavicle -7.20594e-015 7.15625e-015
lhumerus -27.1848 -7.95254 93.4222
lradius 23.8362
lwrist 14.3383
lhand -27.4727 -5.99769
lfingers 7.12502
lthumb -0.876615 23.9803
rfemur -14.6748 -1.36379 18.8963
rtibia 20.531
rfoot -11.6781 -2.52733
rtoes 12.2627
lfemur -14.3708 5.72598 -15.8858
ltibia 18.3034
lfoot -7.65372 6.06332
ltoes -2.55587
521
root -0.0284766 17.7458 1.89598 7.32966 0.432794 -1.7968
lowerback -1.67225 -0.49418 0.168368
upperback 0.853182 -0.695245 1.86331
thorax 1.83314 -0.357152 1.79396
lowerneck -13.3087 -0.410839 -2.18037
upperneck 23.9388 -0.356694 1.17585
head 9.78427 -0.229796 0.735202
rclavicle 4.52235e-015 -3.97569e-016
rhumerus -27.9401 -17.3456 -78.7657
rradius 23.101
rwrist 33.8177
rhand -22.1784 -26.0515
rfingers 7.12502
rthumb 4.23647 -55.9892
lclavicle 4.52235e-015 -3.97569e-016
lhumerus -27.1669 -7.94779 93.4811
lradius 23.7357
lwrist 14.1985
lhand -27.4147 -5.90463
lfingers 7.12502
lthumb -0.820587 24.0735
rfemur -14.4755 -1.3986 18.9005
rtibia 20.4667
rfoot -11.7262 -2.54985
rtoes 12.2226
lfemur -14.2097 5.69564 -15.8683
ltibia 18.286
lfoot -7.71077 6.07016
ltoes -2.58083
522
root -0.0273723 17.745 1.91662 7.2588 0.47396 -1.80411
lowerback -1.7587 -0.500313 0.179223
upperback 0.832719 -0.704503 1.86657
thorax 1.8609 -0.361666 1.79028
lowerneck -13.2955 -0.413646 -2.19466
upperneck 23.8525 -0.353079 1.16058
head 9.75105 -0.230755 0.732333
rclavicle -6.21202e-015 7.95139e-015
rhumerus -27.8842 -17.2719 -78.8262
rradius 23.1144
rwrist 33.7594
rhand -22.151 -26.0441
rfingers 7.12502
rthumb 4.26294 -55.9812
lclavicle -6.21202e-015 7.95139e-015
lhumerus -27.1448 -7.92857 93.5329
lradius 23.6251
lwrist 14.0435
lhand -27.342 -5.77979
lfingers 7.12502
lthumb -0.750439 24.1986
rfemur -14.2833 -1.42535 18.9051
rtibia 20.4074
rfoot -11.7746 -2.57394
rtoes 12.184
lfemur -14.0532 5.66421 -15.8504
ltibia 18.272
lfoot -7.76439 6.0864
ltoes -2.61924
523
root -0.0265095 17.7441 1.93663 7.19119 0.509985 -1.81658
lowerback -1.8441 -0.504322 0.188879
upperback 0.815575 -0.711024 1.87332
thorax 1.89144 -0.36487 1.79093
lowerneck -13.2917 -0.414741 -2.20477
upperneck 23.7671 -0.347583 1.14414
head 9.71993 -0.230562 0.728593
rclavicle 3.62782e-015 -1.59028e-014
rhumerus -27.8345 -17.2061 -78.8827
rradius 23.1327
rwrist 33.6938
rhand -22.1141 -26.0365
rfingers 7.12502
rthumb 4.2986 -55.9728
lclavicle 3.62782e-015 -1.59028e-014
lhumerus -27.1175 -7.89586 93.5773
lradius 23.503
lwrist 13.8738
lhand -27.2596 -5.65348
lfingers 7.12502
lthumb -0.67077 24.3252
rfemur -14.0996 -1.44108 18.9157
rtibia 20.3517
rfoot -11.8212 -2.6027
rtoes 12.1357
lfemur -13.9042 5.63123 -15.827
ltibia 18.261
lfoot -7.81369 6.11281
ltoes -2.67597
524
root -0.025599 17.7431 1.95613 7.1271 0.546127 -1.82853
lowerback -1.92999 -0.507874 0.197179
upperback 0.801702 -0.716987 1.88014
thorax 1.92563 -0.367835 1.79241
lowerneck -13.2906 -0.417814 -2.21994
upperneck 23.6775 -0.34568 1.1359
head 9.68796 -0.23152 0.728117
rclavicle 5.01931e-015 -1.59028e-015
rhumerus -27.7861 -17.1792 -78.9268
rradius 23.1393
rwrist 33.6599
rhand -22.0796 -26.0163
rfingers 7.12502
rthumb 4.33187 -55.952
lclavicle 5.01931e-015 -1.59028e-015
lhumerus -27.0843 -7.84573 93.6106
lradius 23.3729
lwrist 13.6768
lhand -27.1616 -5.51133
lfingers 7.12502
lthumb -0.576152 24.4676
rfemur -13.9227 -1.46468 18.9255
rtibia 20.2989
rfoot -11.8693 -2.62341
rtoes 12.0939
lfemur -13.7622 5.5951 -15.8057
ltibia 18.2531
lfoot -7.8625 6.14545
ltoes -2.74491
525
root -0.0247067 17.7422 1.97498 7.06819 0.582346 -1.84144
lowerback -2.01767 -0.510529 0.205744
upperback 0.790765 -0.721852 1.88679
thorax 1.96379 -0.370267 1.79357
lowerneck -13.29 -0.423939 -2.24195
upperneck 23.5805 -0.348903 1.13761
head 9.65363 -0.234295 0.731601
rclavicle -6.60959e-015 8.74653e-015
rhumerus -27.7396 -17.1859 -78.9609
rradius 23.1338
rwrist 33.6559
rhand -22.0345 -26.0055
rfingers 7.12502
rthumb 4.37541 -55.9403
lclavicle -6.60959e-015 8.74653e-015
lhumerus -27.0436 -7.78199 93.6323
lradius 23.2366
lwrist 13.4582
lhand -27.0627 -5.36176
lfingers 7.12502
lthumb -0.480666 24.6174
rfemur -13.7544 -1.49299 18.9366
rtibia 20.2484
rfoot -11.9175 -2.63983
rtoes 12.0511
lfemur -13.6288 5.55794 -15.7845
ltibia 18.2474
lfoot -7.91054 6.18046
ltoes -2.81004
526
root -0.0238704 17.7413 1.99332 7.01359 0.615855 -1.85537
lowerback -2.10679 -0.511715 0.215188
upperback 0.781896 -0.724829 1.89185
thorax 2.0048 -0.371748 1.79266
lowerneck -13.2874 -0.435514 -2.2781
upperneck 23.4778 -0.361196 1.1583
head 9.61717 -0.24037 0.74294
rclavicle 4.87022e-015 -2.18663e-014
rhumerus -27.6966 -17.2216 -78.9875
rradius 23.1169
rwrist 33.6811
rhand -21.9861 -25.9932
rfingers 7.12502
rthumb 4.42223 -55.9271
lclavicle 4.87022e-015 -2.18663e-014
lhumerus -26.9991 -7.71491 93.6423
lradius 23.0972
lwrist 13.2234
lhand -26.9451 -5.18816
lfingers 7.12502
lthumb -0.367035 24.7913
rfemur -13.5939 -1.52383 18.9492
rtibia 20.2012
rfoot -11.9673 -2.65266
rtoes 12.0036
lfemur -13.5009 5.52569 -15.7632
ltibia 18.2416
lfoot -7.96118 6.21385
ltoes -2.87355
527
root -0.0233273 17.7404 2.01117 6.96076 0.644104 -1.86922
lowerback -2.19386 -0.510608 0.221334
upperback 0.774961 -0.724643 1.89505
thorax 2.04656 -0.371686 1.79182
lowerneck -13.2711 -0.451923 -2.32211
upperneck 23.3592 -0.381423 1.19006
head 9.57278 -0.249537 0.758402
rclavicle 9.93923e-016 -9.93923e-015
rhumerus -27.6625 -17.2568 -79.0158
rradius 23.1008
rwrist 33.71
rhand -21.9352 -25.985
rfingers 7.12502
rthumb 4.47132 -55.9178
lclavicle 9.93923e-016 -9.93923e-015
lhumerus -26.9538 -7.64332 93.6395
lradius 22.9626
lwrist 12.9745
lhand -26.8117 -4.95733
lfingers 7.12502
lthumb -0.238224 25.0223
rfemur -13.4391 -1.54437 18.9629
rtibia 20.1567
rfoot -12.0178 -2.67185
rtoes 11.9532
lfemur -13.3752 5.49907 -15.7408
ltibia 18.236
lfoot -8.01363 6.24512
ltoes -2.92168
528
root -0.0231806 17.7394 2.02838 6.909 0.662547 -1.8824
lowerback -2.27512 -0.50537 0.222735
upperback 0.768823 -0.718701 1.89581
thorax 2.08573 -0.368789 1.79142
lowerneck -13.2461 -0.471825 -2.36864
upperneck 23.2305 -0.407776 1.22859
head 9.52339 -0.260992 0.775828
rclavicle -8.24956e-015 1.39149e-014
rhumerus -27.6376 -17.2973 -79.0437
rradius 23.0813
rwrist 33.7452
rhand -21.8764 -25.9702
rfingers 7.12502
rthumb 4.52813 -55.9018
lclavicle -8.24956e-015 1.39149e-014
lhumerus -26.9107 -7.57575 93.6267
lradius 22.8322
lwrist 12.7227
lhand -26.6637 -4.69216
lfingers 7.12502
lthumb -0.0952828 25.2876
rfemur -13.2909 -1.5502 18.977
rtibia 20.1146
rfoot -12.0671 -2.69687
rtoes 11.9028
lfemur -13.2511 5.48209 -15.7176
ltibia 18.2301
lfoot -8.0669 6.27402
ltoes -2.96069
